<?xml version="1.0" encoding="utf-8"?>
<!-- Generator: Adobe Illustrator 22.1.0, SVG Export Plug-In . SVG Version: 6.00 Build 0)  -->
<svg version="1.1" id="Слой_1" xmlns="http://www.w3.org/2000/svg" xmlns:xlink="http://www.w3.org/1999/xlink" x="0px" y="0px"
	 viewBox="0 0 280 360" style="enable-background:new 0 0 280 360;" xml:space="preserve">
<style type="text/css">
	.st0{fill:#26303B;}
</style>
<g id="Слой_x0020_1_4_">
	<g id="_609111168">
		<path class="st0" d="M216.4,103.4c0,0,0.1,0,0.1,0.1 M232.7,209c1-0.1,1.9,0.5,2.2,1.6 M138.3,294.9v-39.2
			c-5.3,0.4-19.9,1.2-36,0.8c0,0,0,0-0.1,0c-1.2,0-2.2-0.1-3.4-0.1c-0.6,0-1.2-0.1-1.8-0.1c-0.3,0.5-6.4,13.2-6.4,13.2
			c-0.5,0.9-1.8,1.2-2.7,0.6l-7.8-4.8l0,0l0,0c-0.9-0.6-1.2-1.8-0.6-2.7l0,0l0,0l0,0l0,0l0,0l0,0l0,0l0,0l0,0l0,0l0,0l0,0l0,0l0,0
			l0,0l0,0l0,0l0,0l0,0l0,0l0,0l0,0l0,0l0,0l0,0l0,0l0,0l0,0l3.6-6.7c-6.2-0.6-11-1.2-13.2-1.4c-0.8,1.9-2.2,6.8-2.2,16.8v0.1
			c0,0.6,0,1.4,0,2.1c0.1,6,1,11,3.5,14.8c2.7,4,7.5,6.8,15.8,7.3c10.3,0.6,23.6,1.3,34.5,1.2C129,295.9,135,295.7,138.3,294.9z
			 M140.3,71c-7,0-13.4,1.2-17.9,2.9c-4,1.6-6.5,3.6-6.5,5.6s2.5,4,6.5,5.6c4.5,1.8,10.9,3,17.8,3s13.2-1.2,17.8-3
			c4-1.6,6.5-3.6,6.5-5.6s-2.5-4-6.5-5.6C153.5,72,147.3,71,140.3,71z M138.3,91.9c-6.6-0.1-12.7-1.4-17.3-3.2
			c-5.6-2.2-9.1-5.5-9.1-9.2c0-3.8,3.4-7,9-9.2c4.9-1.9,11.7-3.2,19.4-3.2s14.3,1.2,19.4,3.2c5.6,2.2,9,5.5,9,9.2
			c0,3.8-3.5,7-9.1,9.2c-4.5,1.8-10.6,3-17.3,3.2v16.5c2.6-0.1,6.6-0.4,10.8-1.2c3.5-0.6,7-1.4,9.9-2.6h0.1
			c5.7-2.3,9.4-5.3,11.6-8.6c3.2-4.8,4.3-13.6,1.6-19.2c-1.8-3.8-6.4-7-12.5-9.5c-6.4-2.6-14.4-4-23.2-4s-16.9,1.6-23.2,4
			c-6.1,2.5-10.7,5.7-12.5,9.5c-2.7,5.3-1.6,14.4,1.6,19.2c2.2,3.2,5.8,6.1,11.6,8.6h0.1c2.9,1.2,6.4,1.9,9.9,2.6
			c4.2,0.6,8.2,1,10.8,1.2V91.9H138.3z M138.3,112.3c-2.9-0.1-7-0.5-11.4-1.2c-3.8-0.6-7.5-1.6-10.6-2.7h-0.1
			c-6.5-2.7-10.6-6.1-13.2-10c-0.9-1.4-1.7-2.9-2.2-4.3c-0.6,0.6-1.6,1.3-2.5,1.9c-1.9,1.3-4.4,2.6-7.8,4l0,0
			c-8.2,3.1-16.1,4.8-20.8,5.8c-0.6,0.1-1.3,0.3-1.8,0.4c1.6,2.5,3.9,7.1,4.3,13.8c0.5,7.3-0.3,14.8-0.6,18.3
			c4.8,0.5,16.9,1.8,30.8,2.1l0,0c17,0.3,31.2-0.3,36.1-0.5v-27.6H138.3L138.3,112.3z M99.6,90.3c-0.9-4.5-0.6-10.5,1.2-14.7
			c2.1-4.8,7.5-9,14.8-11.8c6.8-2.7,15.3-4.3,24.7-4.3s17.9,1.7,24.7,4.3c7.3,2.9,12.6,7,14.8,11.8c1.9,4.2,2.1,10.1,1.2,14.7
			c0.3,0.1,1.3,0.9,3.5,2.3c1.7,1.2,4,2.3,7.1,3.6c0,0,0,0,0.1,0c7.8,3.1,15.3,4.8,20,6c2.2,0.5,3.9,0.9,4.7,1.2
			c1.7,0.6,3.9,2.1,6.1,3.8c2.3,1.8,4.9,4.2,6.9,6.4l0.1,0.1c5.6,6.2,7.7,15.8,8.3,19.4c0.1,0.1,0.1,0.1,0.3,0.4s0.3,0.6,0.3,0.9
			c1.7,1.9,5.3,7,7.4,14.9l0,0c2.1,7.5,2.1,14.9,1.9,17c1.3,2.1,5.5,9.5,6.2,18.3c0.8,8.1-1.3,16-2.1,18.8c1.7,2.2,5.3,8.1,6,20.4
			l0,0c0.5,7.1-2.2,13.9-3.6,16.9c0.1,0.3,0.1,0.4,0,0.6c1.3,2.6,4.8,10.3,5.1,17.9c0.1,4.4-0.4,8.4-1.2,11.9c-0.9,4-2.5,7.3-4,9.2
			c-1.2,1.4-2.6,2.6-4.3,3.6l-0.3,9.9c0,0.5-0.3,0.9-0.5,1.3c-0.5,0.6-5.2,5.3-13,5.7h-0.1c-8.6,0.4-13.1-4.4-13.1-4.5
			c-0.3-0.3-0.4-0.6-0.5-0.9l0,0l-1.6-8.2c-1.8-0.5-3.1-1.2-4-2.1c-0.6-0.6-1.2-1.3-1.7-2.2c-0.6,2.5-1.6,4.7-3,6.8
			c-3.4,5.1-9.2,8.3-18.8,9c-10.3,0.6-23.8,1.3-34.8,1.2c-8.1-0.1-14.8-0.4-18.3-1.4c-3.5,1-10.3,1.3-18.3,1.4
			c-11.2,0-24.7-0.5-34.8-1.2c-9.7-0.6-15.5-3.9-18.8-9c-1.3-1.9-2.3-4.3-3-6.8c-0.5,0.8-1,1.6-1.7,2.2c-0.9,0.9-2.2,1.6-4,2.1
			l-1.6,8.2l0,0c-0.1,0.4-0.3,0.6-0.5,0.9c0,0-4.5,4.8-13.1,4.5h0.3c-7.8-0.3-12.5-5.1-13-5.7c-0.4-0.4-0.5-0.8-0.5-1.3l-0.3-9.9
			c-1.7-1-3.1-2.2-4.3-3.6c-1.6-1.9-3.1-5.2-4-9.2c-0.9-3.5-1.3-7.5-1.2-11.9c0.3-7.7,3.8-15.3,5.1-17.9c0-0.3,0-0.4,0-0.6
			c-1.4-3-4.2-9.7-3.6-16.9l0,0c0.8-12.5,4.3-18.3,6-20.4c-0.9-2.9-2.9-10.8-2.1-18.8c0.8-8.8,5.1-16.2,6.2-18.3
			c-0.1-2.1-0.1-9.5,1.9-17l0,0c2.1-7.9,5.7-12.9,7.4-14.9c0-0.3,0.1-0.6,0.3-0.9c0.1-0.1,0.1-0.3,0.3-0.4
			c0.6-3.5,2.7-13.1,8.3-19.4l0.1-0.1c1.9-2.1,4.4-4.4,6.9-6.4c2.2-1.7,4.4-3.1,6.1-3.8c0.9-0.4,2.5-0.8,4.7-1.2
			c4.7-1,12.3-2.7,20-6c0,0,0,0,0.1,0c3.1-1.2,5.5-2.5,7.1-3.6C98.2,91.1,99.4,90.5,99.6,90.3z M34.6,286.1l0.1,7
			c1.2,1.2,4.5,3.8,9.9,4l0,0c5.6,0.1,8.7-2.1,9.7-3l1.2-6c-3.2,0.4-7,0.4-10.5,0.3C41.6,288.1,37.8,287.4,34.6,286.1z M56.8,284
			c0.4-0.4,1-0.5,1.6-0.4c0.1,0,0.1,0,0.1,0c1-0.3,1.8-0.6,2.2-1c1-1.2,1.8-2.5,2.5-4.3c0.4-1.4,0.8-3.1,0.8-5.3c0-0.8,0-1.6,0-2.3
			c0-9.1,1.2-14.4,2.2-17.3c-3.8-0.1-10.9-0.6-19.2-2.3h-0.1c-8.1-1.6-14.4-4.9-17.5-6.9c-1.4,3-4,9.1-4.3,15.3
			c-0.1,4,0.3,7.8,1,10.9c0.8,3.4,2.1,6.1,3.4,7.7c1.6,1.8,3.8,3.4,6.2,4.4c3,1.3,6.4,1.9,9.6,2.1c3.6,0.3,7.5,0.1,10.6-0.3
			C56.2,284.1,56.5,284,56.8,284z M138.3,143.8c-5.1,0.3-19.1,0.8-36.1,0.5l0,0l0,0c-14.7-0.3-27-1.6-31.6-2.2
			c-0.8,2.5-2.2,8.1-2.3,16.1c-0.3,9,0.5,13.9,0.9,15.6c4.4,0.9,19.4,3.4,32.6,3.9l0,0c14.4,0.5,31.2-0.6,36.6-1L138.3,143.8
			L138.3,143.8L138.3,143.8z M66.5,141.9c-2.6,0-6.9-0.3-10.9-1.3c-0.1,0-0.1,0-0.1,0c-4.8-1.2-8.4-2.7-10.5-3.8
			c-1.4,1.8-4.5,6.2-6.5,13.1l0,0l0,0c-1.9,7-1.8,13.6-1.8,15.7c1.9,1.2,7.3,4,13.6,5.8l0,0c5.5,1.4,11.6,1.8,14.8,1.9
			c-0.4-2.6-1-7.7-0.8-15.5C64.6,150.6,65.7,145,66.5,141.9z M46.5,133.4c1.8,0.9,5.2,2.3,9.9,3.5c0.1,0,0.1,0,0.1,0
			c4.4,1,8.8,1.2,11,1.2c0.4-3.2,1.2-10.6,0.6-17.8c-0.4-6.6-3-10.9-4.2-12.6c-1.2,0.6-2.3,1.6-3.8,2.6c-2.2,1.7-4.5,3.9-6.4,5.8
			c0,0,0,0.1-0.1,0.1C49,121.5,47,130.1,46.5,133.4z M138.3,180.7c-5.7,0.4-22.2,1.6-36.8,1l0,0l0,0c-13.1-0.5-27.8-3-32.7-3.9
			c-0.8,3.1-2.2,9.7-2.3,16.4c-0.3,8.2,1,14.8,1.6,17.1c4.3,0.8,18.1,3.1,32.9,3.6l0,0c15.7,0.5,32.1-0.3,37.5-0.5v-33.8
			L138.3,180.7L138.3,180.7z M64.8,177.5c-3.5-0.1-9.9-0.6-15.6-2.1l0,0l0,0c-6.2-1.8-11.4-4.4-13.9-5.8c-1.6,2.9-4.3,8.6-4.9,15.3
			c-0.8,8.3,1.7,16.6,2.2,18.1c1.9,1.2,7.8,4.5,15.1,6.2c0,0,0,0,0.1,0c6.5,1.4,12.9,1.8,16.1,2.1c-0.6-3.1-1.6-9.5-1.4-16.9
			C62.7,187.5,64,181,64.8,177.5z M138.3,218.4c-5.6,0.3-22.1,0.9-37.7,0.5l0,0l0,0c-14.7-0.5-28.2-2.7-33-3.5
			c-0.6,3.6-1.9,11.4-1.3,19.1l0,0v0.1c0.5,7.5,3.1,13.6,3.9,15.3c2.3,0.3,7.8,0.9,14.9,1.6c0.5-0.9,10.3-27.3,10.5-27.5
			c0.6-0.9,1.8-1.2,2.7-0.6l7.8,4.8l0,0c0.6,0.4,1,1.3,0.9,2.1c0,0-1.3,5.6-6.8,18.3l0,0c-0.5,1.2-0.9,2.3-1.3,3.4
			c-0.1,0.1-0.1,0.3-0.1,0.4h0.4c1,0.1,1.9,0.1,3,0.1c0.1,0,0.1,0,0.1,0c16.1,0.5,30.9-0.4,35.8-0.8v-33.3H138.3L138.3,218.4z
			 M63.8,215c-3.5-0.1-10.1-0.6-16.9-2.1h-0.1c-7.3-1.7-13.1-4.8-15.7-6.4c-1.4,2.1-3.9,7.1-4.5,17.5l0,0l0,0
			c-0.5,7.8,3.2,14.9,3.9,16.1c2.3,1.6,8.7,5.5,17.1,7h0.1c7.8,1.6,14.4,2.1,18.2,2.2c-1.2-3.1-3-8.3-3.4-14.5l0,0
			C61.8,227,63,218.9,63.8,215z M83,264l5,3c1.3-2.3,4.4-9.1,7.6-15.7l0,0l0,0l0,0l0,0l0,0l0,0l0,0l0,0l0,0l0,0l0,0l0,0l0,0l0,0l0,0
			l0,0l0,0l0,0l0,0l0,0l0,0l0,0l0,0l0,0l0,0l0,0l0,0l0,0l0,0l0,0l0,0l0,0l0,0l0,0l0,0l0,0l0,0l0,0l0,0l0,0l0,0l0,0l0,0l0,0l0,0l0,0
			l0,0l0,0l0,0l0,0l0,0l0,0l0,0l0,0l0,0l0,0l0,0l0,0l0,0l0,0l0,0l0,0l0,0l0,0c0.4-0.8,0.8-1.7,1.3-2.7c0.4-1,0.9-2.2,1.3-3.4
			c0,0,0,0,0-0.1l0,0c3.8-8.8,5.2-11.7,5.8-14.1l-5-3c-0.6,1.9-5.7,14.9-10,24C86.4,257.5,83,264,83,264z M142.2,112.3V140
			c4.9,0.3,19.1,0.8,36.1,0.5l0,0c14-0.3,26-1.6,30.8-2.1c-0.4-3.5-1.2-11-0.6-18.3c0.4-6.5,2.7-11.2,4.3-13.8
			c-0.5-0.1-1.2-0.3-1.8-0.4c-4.8-1-12.6-2.9-20.7-6.1l0,0c-3.4-1.3-5.8-2.7-7.8-4c-1-0.6-1.8-1.3-2.5-1.9c-0.5,1.4-1.3,2.9-2.2,4.3
			c-2.6,3.9-6.8,7.3-13.2,10h-0.1c-3.1,1.3-6.9,2.1-10.6,2.7C149.2,111.8,145,112,142.2,112.3z M245.9,286.1
			c-3.2,1.3-7,2.1-10.5,2.3c-3.5,0.1-7.3,0.1-10.5-0.3l1.2,6c1,0.9,4.3,3.1,9.7,3l0,0c5.3-0.3,8.7-2.9,9.9-4L245.9,286.1z
			 M222,283.6C222.1,283.6,222.1,283.6,222,283.6c0.7-0.1,1.3,0.1,1.7,0.4c0.3,0,0.5,0.1,0.8,0.1c3.1,0.4,7,0.5,10.6,0.3
			c3.2-0.1,6.6-0.9,9.6-2.1c2.6-1,4.8-2.6,6.2-4.4c1.3-1.6,2.5-4.3,3.4-7.7c0.8-3.1,1.2-6.9,1-10.9c-0.3-6.1-2.9-12.3-4.3-15.3
			c-3.2,1.9-9.5,5.3-17.5,6.9h-0.1c-8.2,1.7-15.5,2.2-19.2,2.3c0.9,2.9,2.2,8.2,2.2,17.3c0,0.8,0,1.6,0,2.3c0.1,2.1,0.4,3.8,0.8,5.3
			c0.6,1.8,1.4,3.1,2.5,4.3C220,282.9,220.8,283.3,222,283.6z M142.2,143.8v33c5.5,0.4,22.2,1.6,36.6,1l0,0
			c13.2-0.5,28.2-3.1,32.6-3.9c0.4-1.8,1.2-6.8,0.9-15.6c-0.3-8.2-1.6-13.8-2.3-16.1c-4.5,0.5-17,1.9-31.6,2.2l0,0l0,0
			C161.3,144.6,147.3,144.1,142.2,143.8z M212.9,138.1c2.2,0,6.6-0.1,11-1.2h0.1c4.7-1.2,8.1-2.6,9.9-3.5
			c-0.6-3.4-2.5-11.8-7.3-17.1c0,0-0.1,0-0.1-0.1c-1.8-1.9-4.2-4.2-6.4-5.8c-1.3-1-2.6-1.9-3.8-2.6c-1.3,1.7-3.8,6-4.2,12.6
			C211.8,127.5,212.6,134.9,212.9,138.1z M235.6,137c-2.1,0.9-5.7,2.5-10.5,3.8c-0.1,0-0.1,0-0.1,0c-4.2,0.9-8.4,1.2-10.9,1.3
			c0.9,3.1,2.1,8.6,2.3,16.2c0.1,7.8-0.4,12.9-0.8,15.5c3.2-0.1,9.4-0.5,14.8-1.9l0,0c6.4-1.8,11.7-4.7,13.6-5.8
			c0.1-2.1,0.1-8.8-1.8-15.7l0,0l0,0C240.2,143.2,237,138.8,235.6,137z M142.2,180.7v33.8c5.5,0.3,21.8,1,37.5,0.5l0,0
			c14.8-0.5,28.6-2.9,32.9-3.6c0.5-2.3,1.8-9,1.6-17.1c-0.1-6.8-1.6-13.2-2.3-16.4c-4.9,0.9-19.6,3.4-32.7,3.9l0,0l0,0
			C164.4,182.3,147.9,181.2,142.2,180.7z M245.1,169.6c-2.5,1.4-7.8,4.2-13.9,5.8l0,0l0,0c-5.7,1.6-12.2,1.9-15.6,2.1
			c0.9,3.5,2.2,10,2.3,16.6c0.1,7.5-0.8,13.8-1.4,16.9c3.4-0.1,9.6-0.6,16.1-2.1c0,0,0,0,0.1,0c7.3-1.7,13.1-5.1,15.1-6.2
			c0.5-1.6,3-9.9,2.2-18.1C249.5,178.1,246.6,172.4,245.1,169.6z M142.2,218.4v33.2c4.9,0.4,19.7,1.3,35.8,0.8h0.1
			c1,0,2.1-0.1,3-0.1h0.4c-0.1-0.1-0.1-0.3-0.1-0.4c-0.4-1-0.9-2.1-1.3-3.4l0,0c-5.5-12.7-6.8-18.3-6.8-18.3
			c-0.1-0.8,0.1-1.7,0.9-2.1l0,0l7.8-4.8c0.9-0.5,2.1-0.3,2.7,0.6c0.1,0.1,0.1,0.4,0.3,0.6c0.3,0.9,9.8,26,10.2,26.9
			c7.1-0.6,12.6-1.3,14.9-1.6c0.9-1.8,3.5-7.8,3.9-15.3v-0.1l0,0c0.6-7.7-0.6-15.5-1.3-19.1c-4.8,0.9-18.3,3.1-33,3.5l0,0l0,0
			C164.2,219.4,147.8,218.8,142.2,218.4z M249.4,206.6c-2.6,1.6-8.4,4.7-15.7,6.4h-0.1c-6.8,1.4-13.4,1.9-16.9,2.1
			c0.8,4,1.9,11.9,1.3,19.9l0,0c-0.4,6.2-2.2,11.4-3.4,14.5c3.6-0.1,10.4-0.6,18.2-2.2h0.1c8.4-1.6,14.8-5.5,17.1-7
			c0.6-1.2,4.4-8.4,3.9-16.1l0,0l0,0C253.3,213.7,250.8,208.6,249.4,206.6z M142.2,255.7v39.2c3.2,0.6,9.2,1,16.4,1
			c10.9,0,24.4-0.5,34.5-1.2c8.3-0.5,13.1-3.1,15.8-7.3c2.5-3.8,3.4-8.8,3.5-14.8c0-0.6,0-1.3,0-2.1v-0.1c0-10-1.4-14.9-2.2-16.8
			c-2.2,0.3-7,0.8-13.2,1.4l3.6,6.7l0,0l0,0l0,0l0,0l0,0l0,0l0,0l0,0l0,0l0,0l0,0l0,0l0,0l0,0l0,0l0,0l0,0l0,0l0,0l0,0l0,0l0,0l0,0
			l0,0l0,0c0.5,0.9,0.3,2.1-0.6,2.7l0,0l0,0l-7.8,4.8c-0.9,0.5-2.1,0.3-2.7-0.6c0,0-6.3-11.9-6.4-12.5c-0.6,0-1.2,0.1-1.8,0.1
			c-1.2,0.1-2.2,0.1-3.4,0.1h-0.1C162.1,256.8,147.4,256.1,142.2,255.7z M188.5,245c-3.5-8.1-5.6-13.9-6.5-16.9l-4.4,2.7
			c0.6,2.2,2.3,7.4,6.1,16.4l0,0v0.1c0.4,1.2,0.9,2.2,1.3,3.4c0.4,1,0.9,1.8,1.3,2.7l0,0l0,0l0,0l0,0l0,0l0,0l0,0l0,0l0,0l0,0l0,0
			l0,0l0,0l0,0l0,0l0,0l0,0l0,0l0,0l0,0l0,0l0,0l0,0l0,0l0,0l0,0l0,0l0,0l0,0l0,0l0,0l0,0l0,0l0,0l0,0l0,0l0,0l0,0l0,0l0,0l0,0l0,0
			l0,0l0,0l0,0l0,0l0,0l0,0l0,0l0,0l0,0l0,0l0,0l0,0l0,0l0,0l0,0l0,0l0,0l0,0l0,0l0,0l0,0l0,0c3,6.6,5.5,11.2,6.8,13.4l4.4-2.7
			C197.5,264.1,189.1,247,188.5,245z"/>
	</g>
</g>
</svg>
