<?xml version="1.0" encoding="utf-8"?>
<!-- Generator: Adobe Illustrator 21.1.0, SVG Export Plug-In . SVG Version: 6.00 Build 0)  -->
<svg version="1.1" id="Слой_1" xmlns="http://www.w3.org/2000/svg" xmlns:xlink="http://www.w3.org/1999/xlink" x="0px" y="0px"
	 viewBox="0 0 280 360" style="enable-background:new 0 0 280 360;" xml:space="preserve">
<style type="text/css">
	.st0{fill:#26303B;stroke:#26303B;stroke-miterlimit:10;}
	.st1{fill:#26303B;}
</style>
<g>
	<g id="shirt_5_">
		<path class="st0" d="M144.1,196.6c0,1.9-1.4,3.3-3.3,3.3s-3.3-1.4-3.3-3.3c-0.1-1.9,1.5-3.3,3.3-3.3
			C142.5,193.1,144.1,194.7,144.1,196.6z"/>
		<path class="st0" d="M144.1,163.8c0,1.9-1.4,3.3-3.3,3.3s-3.3-1.4-3.3-3.3c0.1-1.9,1.5-3.3,3.3-3.3
			C142.5,160.4,144.1,161.9,144.1,163.8z"/>
		<path class="st0" d="M144.1,229.3c0,1.9-1.4,3.3-3.3,3.3s-3.3-1.4-3.3-3.3c-0.1-1.9,1.5-3.3,3.3-3.3
			C142.5,226,144.1,227.4,144.1,229.3z"/>
		<path class="st1" d="M252.6,178.8c-5.6-16-11.5-27.1-17.7-31.4c0-0.1-0.1-0.1-0.1-0.1c-8.8-7.4-20.8-12-32.1-15.9
			c-4.1-1.5-8.1-3.1-11.9-4.6c-0.1-0.4-0.2-0.7-0.5-0.9l-15.6-13.4l-0.1-0.1c-0.3-0.3-0.5-0.4-0.9-0.4c-0.5-0.7-1-1.4-1.8-1.9
			c-0.8-0.5-1.4-0.7-2.3-0.7h-28.3h-0.8h-3.1h-26c-0.9,0-1.8,0.3-2.5,0.8c-0.7,0.4-1.2,1-1.6,1.9c-0.3,0-0.7,0.1-0.9,0.4
			c-0.1,0-0.1,0.1-0.1,0.1L91,125.8c-0.2,0.3-0.4,0.5-0.5,0.9c-3.5,1.5-7.6,3.1-11.9,4.6c-11.2,4.1-23.3,8.3-32.1,15.8
			c0,0.1-0.1,0.1-0.1,0.1c-6,4.2-12,15.4-17.7,31.4c-6.3,17.8-12.3,42-17.9,69.2c-0.3,1,0.4,2,1.3,2.1c0.3,0.1,0.7,0.1,0.9,0
			c0.7-0.2,1-0.7,1.2-1.3c5.6-27.1,11.5-51,17.7-68.8c4.5-13.3,9.3-22.8,14-27.7l4.4,54.5l3.1,35.8v5.6c0,1,0.9,1.8,1.8,1.8
			c1,0,1.8-0.8,1.8-1.8v-5.9l-3.1-35.8l-4.6-56.9c8.2-6.7,19.7-10.9,30.3-14.8c4-1.4,8.1-3.1,11.6-4.4l17.6,44.8
			c0.3,0.9,1.4,1.3,2.3,1c0.5-0.3,0.9-0.7,1-1.1c1.9-4.8,5.8-9.6,10.7-13.5c2.1-1.8,4.3-3.3,6.4-4.6v91.6c0,0.7,0.5,1.2,1,1.5l0,0
			c0.2,0.1,0.4,0.2,0.7,0.2s0.5,0,0.7-0.2l0,0c0.7-0.3,1-0.9,1-1.5v-93.6c2.4-1,4.4-1.9,6.5-2.3c1-0.3,1.6-1.1,1.3-2.1v-0.2h0.8
			c0,0,0,0,0,0.1c-0.3,1,0.4,2,1.3,2.1c4.6,0.9,10.8,4.4,16.4,9c4.6,4,8.8,8.8,10.7,13.5c0.1,0.7,0.5,0.9,1,1.1c1,0.4,1.9-0.1,2.3-1
			l17.2-44.7c3.5,1.4,7.6,3.1,11.6,4.4c10.8,4,22.1,8.2,30.3,14.8l-7.5,92.6v5.8c0,1,0.7,1.6,1.6,1.8h0.1h0.1h0.1h0.1
			c0.9-0.1,1.5-0.8,1.5-1.8v-5.6l7.4-90.2c4.7,4.9,9.3,14.5,14,27.7c6.3,17.7,12.1,41.6,17.7,68.8c0.2,0.7,0.7,1.1,1.2,1.3
			c0.3,0.1,0.7,0.1,0.9,0c1-0.3,1.4-1.1,1.3-2.1C264.9,220.4,259,196.4,252.6,178.8z M120.1,158.4c-3.7,3.1-7.4,7.3-9.7,11.3
			l-16.1-42.2l13.3-11.5c0.2,0.3,0.3,0.7,0.7,0.9l8.1,9.4l19.3,23.2C130.8,151.1,125.3,154.4,120.1,158.4z M143.1,145.9
			c-0.8,0.3-1.6,0.7-2.6,0.7c-0.9,0-1.9-0.2-2.6-0.7c-0.8-0.4-1.5-0.9-2.1-1.6l-8.3-9.9l-0.4-0.5l-0.2-0.2l-0.3-0.4
			c-0.1-0.1-0.1-0.1-0.2-0.2c-0.9-1-0.7-0.8-1.4-1.9l-0.5-0.7l-5.6-6.6l-1.6-2c-0.3-0.4-0.4-0.7-0.8-1c-0.7-0.8-0.3-0.4-1.1-1.4
			l-4.5-5.4c0,0,0,0,0-0.1s0-0.3,0.1-0.7c0-0.2,0.3-0.4,0.4-0.5c0.1,0,0.3-0.1,0.7-0.1h24.3h-0.1l7.7,0.2h25.8c0.2,0,0.5,0,0.7,0.1
			c0.1,0.1,0.3,0.2,0.4,0.5c0.1,0.2,0.1,0.5,0.1,0.7v0.2l-4.4,5.3l-0.1,0.1c-0.1-0.1,0,0.2-0.1,0.1c-0.7,0.7-1,1-1.9,1.9
			c-0.1,0.2-0.4,0.7-0.7,0.7l-2.3,3l-5.1,6l-0.2,0.2c-0.3,0.4-0.4,0.5-0.7,0.9c-0.4,0.5-0.8,1-1.1,1.3l0,0c0,0.1-0.1,0.3-0.2,0.4
			l-0.2,0.2l-8.6,10.1C144.8,145,144.1,145.6,143.1,145.9z M170.8,169.9c-2.3-4.1-5.7-7.9-9.7-11.3c-5.1-4.2-10.5-7.3-15.2-9
			l18.3-22.1l8.9-10.5c0.2-0.3,0.5-0.5,0.7-0.9l13.3,11.6L170.8,169.9z"/>
	</g>
</g>
</svg>
