<?xml version="1.0" encoding="utf-8"?>
<!-- Generator: Adobe Illustrator 21.1.0, SVG Export Plug-In . SVG Version: 6.00 Build 0)  -->
<svg version="1.1" id="Слой_1" xmlns="http://www.w3.org/2000/svg" xmlns:xlink="http://www.w3.org/1999/xlink" x="0px" y="0px"
	 viewBox="0 0 280 360" style="enable-background:new 0 0 280 360;" xml:space="preserve">
<style type="text/css">
	.st0{fill:#26303B;}
</style>
<path class="st0" d="M214,140.3H80.3c-11.2,0-21.4,4.4-28.7,11.9c-7.4,7.3-11.9,17.5-11.9,28.7s4.4,21.2,11.9,28.7
	c7.3,7.4,17.5,11.9,28.7,11.9h147.9c3.4,0,6.4-1.4,8.5-3.5c2.2-2.2,3.5-5.2,3.5-8.5s-1.3-6.3-3.5-8.5s-5.2-3.5-8.5-3.5h-14.3H80.3
	c-4.4,0-8.5-1.7-11.5-4.8c-3-3.1-4.8-6.9-4.8-11.5c0-4.3,1.7-8.3,4.8-11.5c3-3,6.9-4.8,11.5-4.8h133.6c1.3,0,2,1,2,2c0,1.3-1,2-2,2
	H80.3c-3.4,0-6.4,1.3-8.5,3.5c-2.3,2.3-3.5,5.5-3.5,8.5c0,3.4,1.4,6.4,3.5,8.5c2.2,2.2,5.2,3.5,8.5,3.5h133.6c7.3,0,13.8-3,18.6-7.7
	c4.8-4.8,7.7-11.3,7.7-18.6c0-6.9-2.7-13.7-7.7-18.6C227.8,143.2,221,140.3,214,140.3L214,140.3z M80,136h133.7l0,0
	c5,0,9.6,1.3,13.8,3.3c1.4,0.8,3,1.7,4.3,2.6c1.4,1,3,2.5,3.5,3.1c5.6,5.6,9,13.2,9,21.6c0,8.2-3.3,15.8-9,21.5
	c-1.8,1.8-3.9,3.5-6.3,4.8c4,0.3,7.7,2,10.6,4.8c3,3,4.8,6.9,4.8,11.5c0,4.3-1.7,8.3-4.8,11.5c-3,3-6.9,4.8-11.5,4.8l-148.2-0.1
	c-12.4,0-23.6-5.1-31.5-13.2c-8.2-8.2-13.2-19.4-13.2-31.5c0-12.4,5.1-23.6,13.2-31.5c2.2-2.3,4.7-4.3,7.3-6l0,0l0,0
	C62.9,138.8,71.4,136,80,136z"/>
</svg>
