<?xml version="1.0" encoding="utf-8"?>
<!-- Generator: Adobe Illustrator 21.1.0, SVG Export Plug-In . SVG Version: 6.00 Build 0)  -->
<svg version="1.1" id="Слой_1" xmlns="http://www.w3.org/2000/svg" xmlns:xlink="http://www.w3.org/1999/xlink" x="0px" y="0px"
	 viewBox="0 0 280 360" style="enable-background:new 0 0 280 360;" xml:space="preserve">
<style type="text/css">
	.st0{fill:#26303B;stroke:#26303B;stroke-miterlimit:10;}
</style>
<path class="st0" d="M75.7,321.1c-1.1,0-2.3-1.2-2.4-1.7c-2-27-2.1-50.3-0.5-71.2c2-25.6,6.8-47.5,14.6-67.7c0.4-1,0.6-2.2,1-3.1
	c2-5,4.3-9.9,6.7-14.7c2.5-5.2,5-9.5,8.8-15.8l0.5-0.8l-0.3-1.8c-1.3-6.7-2.6-13.7-4.5-20.7c-1.5-5.8-2.9-11.1-4.9-15.7l-1.5-3.4
	l-0.4,3.7c-0.5,4.1-0.6,7.6-0.7,10.6c0,1.2-0.1,2.3-0.2,3.4c0,0.6-0.1,1.1-0.1,1.5c-0.1,0.5-0.1,0.9-0.1,1.4c0,0.8-0.8,1.2-1.4,1.2
	l-27.5-0.2c-0.4-0.1-0.8-0.3-1-0.6c-0.1-0.1-0.2-0.4-0.2-0.7c2.3-22.3,4.2-39.9,7.1-51.6c2.6-11.8,6.6-18.7,12.4-21.8
	c4-2.3,8.2-4.3,12.8-6.2c3.9-1.8,8.4-3.7,13.9-5.7c0.2,0,0.4-0.1,0.5-0.2c0.5,0,1,0.2,1.1,0.8c1.3,6.4,5.2,12.5,11,17.1
	c5.5,4.3,12.4,6.7,19.5,6.7c7,0,13.7-2.3,19.5-6.7c5.6-4.4,9.7-10.5,11.5-17v-0.1c0.1-0.6,0.6-0.9,1-0.9l0.6,0.3
	c4.4,1.6,9.3,3.6,14,5.8c4,1.7,8.3,3.8,12.6,6.2c5.8,3.3,9.5,9.9,12.4,21.8c2.7,11.5,4.7,28.2,7.1,51.5c0.1,0.4,0,0.8-0.2,1
	s-0.5,0.3-0.8,0.3l-27.6,0.2c-0.7,0-1.4-0.4-1.4-1.2c0-0.3,0-0.7-0.1-1.2s-0.1-1.1-0.1-1.7l-0.1-1.7c-0.2-3.6-0.4-7.6-0.8-12.5
	l-0.3-3.8l-1.6,3.5c-2.5,5.5-4.1,10.9-5.4,16c-1.9,7-3.2,13.9-4.5,20.7l-0.3,1.6l0.2,0.3c3.3,5.3,6.2,10.9,9.1,16.4
	c3.1,6.2,5.6,12.6,7.5,17.5c7.5,19.8,12.2,42.1,14.4,68.1c1.6,20.9,1.4,43.6-0.7,71.3c-0.1,0.4-0.4,1.3-1.5,1.3H75.7L75.7,321.1
	L75.7,321.1z M106.6,147.7c-3.9,6.2-6.9,11.4-9.4,16.5c-2.7,5.8-5.2,11.7-7.6,17.3v0.1c-7.5,19.6-12.1,41.6-14.1,67.3
	c-1.6,20.2-1.4,42,0.7,68.7l0.1,0.9H203l0.1-0.9c2-26.4,2.3-48.9,0.7-68.7c-1.9-25.2-6.5-47.2-14.1-67.3c-2.5-6.5-5-12.2-7.6-17.5
	c-2.5-5.4-5.5-10.7-9.4-16.5c-0.1-0.3-0.2-0.6-0.1-1v-0.1v-0.1c1.3-7.5,2.7-15.1,4.7-23.1c1.8-6.5,4.5-15,8.8-23.6v-0.1v-0.1
	c0.1-0.3,0.5-0.5,1.1-0.7c0,0,0.1,0,0.2,0c0.7,0,1.2,0.5,1.3,1c1.5,9.2,1.7,15.7,2,21.5v0.6v1.6l24.8-0.2l-0.1-1.1
	c-2.4-21.8-4.2-37.6-6.7-48.6c-2.4-10.6-5.9-16.9-11.1-20.2c-3.5-2-7.6-3.9-12.4-6.1c-4.4-2-8.1-3.5-11.6-4.7l-0.9-0.3l-0.3,0.9
	c-2.3,6.2-6.3,11.8-11.7,16c-5.7,4.5-13.2,7.1-20.7,7.1c-7.6,0-14.7-2.4-21-7.1c-5.4-4.1-9.5-9.8-11.7-16l-0.3-1l-1,0.4
	c-1.9,0.7-4,1.6-6.1,2.5c-1.8,0.7-3.6,1.5-5.5,2.2c-3.7,1.4-7.7,3.3-12.4,6.1c-5.2,2.8-8.6,9.1-11.2,20.2c-2.5,11-4.2,26.8-6.7,48.6
	l-0.1,1.1l24.8,0.2v-1.7c0.2-5,0.6-12.1,2-22.1c0.1-0.5,0.4-1,1-1c0.1,0,0.2,0,0.4,0.1c0.3,0.1,0.9,0.3,1.2,0.9
	c3.6,6.9,6.4,14.4,8.8,23.5c2.4,8.4,3.7,16.4,4.7,23v0.1v0.1C106.9,147.1,106.8,147.5,106.6,147.7z"/>
</svg>
