<?xml version="1.0" encoding="utf-8"?>
<!-- Generator: Adobe Illustrator 21.1.0, SVG Export Plug-In . SVG Version: 6.00 Build 0)  -->
<svg version="1.1" id="Слой_1" xmlns="http://www.w3.org/2000/svg" xmlns:xlink="http://www.w3.org/1999/xlink" x="0px" y="0px"
	 viewBox="0 0 280 360" style="enable-background:new 0 0 280 360;" xml:space="preserve">
<style type="text/css">
	.st0{fill:#26303B;}
</style>
<g id="jacket">
	<g id="_872797072_2_">
		<path class="st0" d="M189.3,177c0-0.1,0-0.3,0.1-0.4l12-64.5l-25.9-14.3l2.8,3.7c0.5,0.7,0.4,1.8-0.3,2.4
			c-0.1,0.1-0.3,0.2-0.4,0.2l-3.4,1.4l5.6,2.8c0.7,0.4,1.1,1.4,0.7,2.3v0.1l0,0l-30.4,58.5c0,0,0,0.1-0.1,0.1l-13,24.4v43.2
			c0,10.4,0.1,18.5,0.5,24.4c0.4,5.8,1.4,9.8,2.8,12.6l0.1,0.1c3.4,5.8,11.1,5.8,26.5,5.6c2.8,0,5.6-0.1,7.4-0.1H189v-49.4
			c-0.1,0-0.1,0-0.2,0h-29.1c-1,0-1.8-0.7-1.8-1.8c0-1,0.7-1.8,1.8-1.8h29.1c0.1,0,0.1,0,0.2,0L189.3,177L189.3,177z M141.9,204.7
			c1.4,0,2.6-1.1,2.6-2.6c0-1.4-1.1-2.6-2.6-2.6c-1.4,0-2.6,1.1-2.6,2.6C139.2,203.5,140.5,204.7,141.9,204.7z M141.9,231.2
			c1.4,0,2.6-1.1,2.6-2.6c0-1.6-1.1-2.6-2.6-2.6c-1.4,0-2.6,1.1-2.6,2.6C139.2,230.1,140.5,231.2,141.9,231.2z M141.9,257.9
			c1.4,0,2.6-1.1,2.6-2.6c0-1.4-1.1-2.6-2.6-2.6c-1.4,0-2.6,1.1-2.6,2.6C139.3,256.8,140.5,257.9,141.9,257.9z M218.8,258.1
			c-1.4,0-2.6-1.1-2.6-2.6c0-1.5,1.1-2.6,2.6-2.6s2.6,1.1,2.6,2.6C221.6,256.8,220.4,258.1,218.8,258.1z M219.6,264.7
			c-1.4,0-2.6-1.1-2.6-2.6c0-1.4,1.1-2.6,2.6-2.6c1.4,0,2.6,1.1,2.6,2.6S221,264.7,219.6,264.7z M220.4,271.6
			c-1.4,0-2.6-1.1-2.6-2.6c0-1.4,1.1-2.6,2.6-2.6s2.6,1.1,2.6,2.6C223,270.4,221.9,271.6,220.4,271.6z M61.1,258.1
			c1.4,0,2.6-1.1,2.6-2.6c0-1.5-1.1-2.6-2.6-2.6c-1.4,0-2.6,1.1-2.6,2.6C58.3,256.8,59.6,258.1,61.1,258.1z M60.3,264.7
			c1.4,0,2.6-1.1,2.6-2.6c0-1.4-1.1-2.6-2.6-2.6c-1.4,0-2.6,1.1-2.6,2.6S58.8,264.7,60.3,264.7z M59.6,271.6c1.4,0,2.6-1.1,2.6-2.6
			c0-1.4-1.1-2.6-2.6-2.6c-1.4,0-2.6,1.1-2.6,2.6C57,270.4,58.2,271.6,59.6,271.6z M192.8,197.5l7.1,77.5l25.5-1.4l-12.5-133l-0.1-1
			c-1-9.7-1.8-19.3-8.3-25.1l-11.8,62.7L192.8,197.5L192.8,197.5z M204.1,109.8c0.1,0,0.1,0.1,0.2,0.1c9.8,6.3,10.9,17.8,11.8,29.1
			l0.1,1l12.6,134.9c0,0.1,0,0.1,0,0.1c0.1,1-0.7,1.8-1.6,1.8l-29,1.8l0,0c-1,0.1-1.8-0.5-1.8-1.6l-3.7-41.8v46.2
			c0,1-0.7,1.8-1.8,1.8h-16.5c-3.5,0-5.5,0-7.4,0c-15.1,0.1-23.2,0.1-27.9-5.2c-4.4,5.8-11.4,5.6-24.1,5.3c-3-0.1-6.2-0.1-10.4-0.1
			h-16c-1,0-1.8-0.7-1.8-1.8v-46.2L83.1,277c-0.1,1-1,1.6-1.8,1.6l0,0l-29-1.8c-1-0.1-1.6-1-1.6-1.8v-0.1l12.7-134.6l0.1-1
			c1-11.5,2.1-23,12-29.1c0.1-0.2,0.2-0.2,0.2-0.2l33.4-18.3l2.3-3.1c0.1,0,0.1-0.1,0.1-0.1c4.6-5.3,9.2-8.2,13.9-9.7
			c4.6-1.4,9.1-1.6,13.6-1.6c0.2,0,0.3,0,0.5,0s0.4,0,0.7,0c4.6,0,9.2,0.3,13.7,1.8c4.9,1.6,9.4,4.4,13.9,9.7l0.1,0.1l0,0l2.3,3.1
			L204.1,109.8z M118.4,226.8c1,0,1.8,0.7,1.8,1.8c0,1-0.7,1.8-1.8,1.8h-28c-0.1,0-0.1,0-0.2,0v49.4h14.6c3.5,0,7.1,0.1,10.4,0.1
			c12.1,0.3,18.5,0.4,21.9-4.9c-1.4-3.1-2.4-7.4-2.8-13.3c-0.5-6.2-0.5-14.3-0.5-24.8v-43.4c0-0.2,0.1-0.5,0.1-0.7
			c1-2.4,2-5.5,3.1-9.2l-7.4-14.1l0,0l0,0l-30.5-58.6c-0.4-0.7-0.1-1.8,0.7-2.3l0.1-0.1l5.5-2.8l-3.4-1.5c-0.9-0.3-1.2-1.4-0.9-2.2
			c0-0.1,0.1-0.2,0.2-0.3l0,0l2.8-3.7l-26,14.2l12.1,64.5c0,0.1,0,0.2,0,0.3l0,0v49.9c0.1,0,0.1,0,0.2,0L118.4,226.8L118.4,226.8
			L118.4,226.8z M86.9,197.5v-20.2l-11.8-62.8c-6.4,5.8-7.4,15.4-8.3,25l-0.1,1l-12.5,133l25.5,1.4L86.9,197.5z M135.9,174
			c-3.4-11.6-7-25.9-9.8-39.2c-3.2-15.4-5.5-29.5-5.5-36.9c0-6.3,1.8-11.6,4.9-15.4c0.2-0.2,0.3-0.4,0.5-0.7
			c-4.2,1.4-8.2,3.7-12.1,8.5l0,0l-8.6,11.7l4.9,2.1c0.3,0.1,0.7,0.4,1,1c0.4,0.7,0.1,1.8-0.7,2.3l-7.4,3.5l29.7,56.8l0,0L135.9,174
			z M129.4,134c2.8,13.7,6.7,28.7,10.2,40.6c2.8-10.2,6.1-22.5,8.8-34.6c3.9-17.5,7-34,7-42.1c0-5.4-1.4-10-4.2-13
			c-2.5-2.8-6.4-4.6-11.4-4.6s-9.1,1.6-11.5,4.6c-2.8,3.1-4.2,7.6-4.2,13C124.1,105,126.4,119,129.4,134z M165.4,90.5
			c-3.7-4.6-7.9-7.1-12-8.4c0.1,0.2,0.3,0.3,0.4,0.5c3.4,3.7,4.9,9.1,4.9,15.4c0,8.4-3.1,25.3-7.1,43c-2.8,12-5.8,24.4-8.8,34.6
			l4.1-7.4v-0.1l29.7-56.8l-7.5-3.7l0,0c-0.3-0.1-0.7-0.4-0.7-1c-0.3-1,0.1-1.8,1-2.3l4.9-2.1L165.4,90.5L165.4,90.5z"/>
	</g>
</g>
</svg>
