<?xml version="1.0" encoding="utf-8"?>
<!-- Generator: Adobe Illustrator 21.1.0, SVG Export Plug-In . SVG Version: 6.00 Build 0)  -->
<svg version="1.1" id="Слой_1" xmlns="http://www.w3.org/2000/svg" xmlns:xlink="http://www.w3.org/1999/xlink" x="0px" y="0px"
	 viewBox="0 0 280 360" style="enable-background:new 0 0 280 360;" xml:space="preserve">
<style type="text/css">
	.st0{fill:none;stroke:#26303B;stroke-width:3;stroke-miterlimit:10;}
	.st1{fill:#26303B;}
	.st2{fill:none;stroke:#26303B;stroke-width:3;stroke-linecap:round;stroke-miterlimit:10;}
</style>
<g id="trousers">
	<path class="st0" d="M189.8,43h-101c-1.6,0-3-1.3-3-3V25.7c0-1.6,1.3-3,3-3h101c1.6,0,3,1.3,3,3V40C192.7,41.8,191.4,43,189.8,43z"
		/>
	<path class="st0" d="M103.8,41.9c0,17.9-11.5,32.3-25.6,32.3"/>
	<path class="st0" d="M174.4,41.9c0,17.9,11.5,32.3,25.6,32.3"/>
	<path class="st0" d="M150.8,44.1c3.2,23.6-0.8,41.7-12.5,38.8"/>
	<line class="st0" x1="138.4" y1="24.2" x2="139.3" y2="160.7"/>
	<path class="st1" d="M171.6,336L171.6,336c1,0,1.9-0.9,1.9-1.9V87.7c0-1-0.9-1.9-1.9-1.9l0,0c-1,0-1.9,0.9-1.9,1.9v246.5
		C169.8,335.1,170.6,336,171.6,336z"/>
	<path class="st1" d="M107.7,336L107.7,336c1,0,1.9-0.9,1.9-1.9V84.8c0-1-0.9-1.9-1.9-1.9l0,0c-1,0-1.9,0.9-1.9,1.9v249.6
		C105.7,335.1,106.6,336,107.7,336z"/>
	<path class="st1" d="M78.1,74.3L78.1,74.3c1,0.3,2.1-0.1,2.4-1.3l9.6-29.2c0.3-1-0.1-2.1-1.3-2.4l0,0c-1-0.3-2.1,0.1-2.4,1.3
		l-9.6,29.2C76.3,73,76.9,74.1,78.1,74.3z"/>
	<path class="st1" d="M201.7,75.9L201.7,75.9c-1,0.3-2.1-0.1-2.4-1.3l-9.5-29.3c-0.3-1,0.1-2.1,1.3-2.4l0,0c1-0.3,2.1,0.1,2.4,1.3
		l9.6,29.2C203.2,74.6,202.6,75.6,201.7,75.9z"/>
	<path class="st1" d="M193.8,331L193.8,331c1,0,1.9-0.7,1.9-1.9l7.2-254.5c0-1-0.7-1.9-1.9-1.9l0,0c-1,0-1.9,0.7-1.9,1.9l-7.3,254.6
		C192,330,192.7,331,193.8,331z"/>
	<path class="st1" d="M85.5,332.9L85.5,332.9c-1,0-1.9-0.7-1.9-1.9L76.3,74.3c0-1,0.7-1.9,1.9-1.9l0,0c1,0,1.9,0.7,1.9,1.9L87.3,331
		C87.4,332,86.4,332.9,85.5,332.9z"/>
	<path class="st1" d="M107.4,336.9l-22.2-3.8c-1-0.1-1.9-1.3-1.6-2.4l0,0c0.1-1,1.3-1.9,2.4-1.6l22.2,3.8c1,0.1,1.9,1.3,1.6,2.4l0,0
		C109.4,336.5,108.4,337.2,107.4,336.9z"/>
	<path class="st1" d="M172.2,337.3l21.7-5.3c1-0.3,1.9-1.3,1.5-2.5l0,0c-0.3-1-1.3-1.9-2.5-1.5l-21.7,5.3c-1,0.3-1.9,1.3-1.5,2.5
		l0,0C170,336.9,171.2,337.5,172.2,337.3z"/>
	<path class="st1" d="M108.7,336.9l22.2-3.8c1-0.1,1.9-1.3,1.6-2.4l0,0c-0.1-1-1.3-1.9-2.4-1.6l-22.2,3.8c-1,0.1-1.9,1.3-1.6,2.4
		l0,0C106.5,336.5,107.7,337.2,108.7,336.9z"/>
	<path class="st1" d="M170.1,337.3l-21.7-5.3c-1-0.3-1.9-1.3-1.5-2.5l0,0c0.3-1,1.3-1.9,2.5-1.5l21.7,5.3c1,0.3,1.9,1.3,1.5,2.5l0,0
		C172.5,336.9,171.5,337.5,170.1,337.3z"/>
	<path class="st2" d="M131,330.1c4.6-94.7,8.2-166.2,8.4-172"/>
	<path class="st2" d="M148,329.7c-4.6-95-8.9-165.9-8.7-172.7"/>
</g>
</svg>
