<?xml version="1.0" encoding="utf-8"?>
<!-- Generator: Adobe Illustrator 22.1.0, SVG Export Plug-In . SVG Version: 6.00 Build 0)  -->
<svg version="1.1" id="Слой_1" xmlns="http://www.w3.org/2000/svg" xmlns:xlink="http://www.w3.org/1999/xlink" x="0px" y="0px"
	 viewBox="0 0 280 360" style="enable-background:new 0 0 280 360;" xml:space="preserve">
<style type="text/css">
	.st0{fill:#26303B;}
</style>
<g id="Слой_x0020_1_6_">
	<g id="_615088704">
		<path class="st0" d="M161.6,73.3c0-6-2.3-11.3-6.2-15.2s-9.2-6.2-15.2-6.2c-5.8,0-11.3,2.3-15.2,6.2s-6.2,9.2-6.2,15.2
			c0,22.6,8.7,48.3,17.3,73.9c0.6,2.1,1.4,4.2,2.1,6.2l-2.1,6.2L98.6,111c-0.3-0.4-0.4-0.8-0.5-1.2c-0.1-0.4-0.1-0.9,0-1.3
			c0.1-0.8,6.2-7.5,9.5-10.9c0.9-1,1.7-1.8,1.8-1.9c0.6-0.8,0.9-1.6,0.5-2.5c-0.1-0.5-0.6-1-1-1.3c-0.5-0.3-1-0.4-1.6-0.3
			c-2.3,0.4-4.5,0.9-6.8,1.6c-2.3,0.5-4.4,1.2-6.6,1.8c-0.1,0-0.3,0-0.4,0c-0.5,0-0.9-0.1-1.2-0.5c-0.3-0.3-0.5-0.6-0.5-1.2
			c0-0.4,0-0.6,0-0.9c0-0.1,0-0.5,0-1c0-11.6,5.6-22.6,14.2-30.1c8.8-7.8,21-12.6,34.4-12.6c13.5,0,25.7,4.8,34.4,12.6
			S189,79.9,189,91.4c0,0.5,0,0.9,0,1c0,0.3,0,0.5,0,0.9s-0.3,0.9-0.5,1.2c-0.3,0.3-0.6,0.5-1.2,0.5c-0.1,0-0.1,0-0.3,0h-0.1
			c-2.1-0.6-4.3-1.2-6.6-1.8c-2.3-0.5-4.5-1-6.8-1.6c-0.5-0.1-1.2,0-1.6,0.3c-0.5,0.3-0.9,0.8-1,1.3c-0.3,0.6-0.1,1.3,0.1,1.8
			c0.1,0.4,0.3,0.5,0.5,0.8c0.4,0.5,1,1.2,1.7,1.9c3.1,3.5,9.2,10.3,9.5,11c0.1,0.5,0.1,0.9,0,1.3s-0.3,0.8-0.5,1.2l-44.9,58.6
			C146.8,139.3,161.6,104.5,161.6,73.3z M202.1,233.8c0-0.1,0-0.4-0.1-0.5l-11.7-76c-0.1-1-1.2-1.8-2.2-1.7s-1.8,1.2-1.7,2.2
			l11.7,76.1V312h-64.7V180.4l51.3-66.8c0.6-0.9,1-1.7,1.3-2.7c0.3-0.9,0.3-1.9,0-3c-0.4-1.6-5.6-7.5-9.1-11.4
			c0.8,0.1,1.4,0.4,2.2,0.5c2.2,0.5,4.3,1.2,6.4,1.7c0.3,0.1,0.5,0.1,0.8,0.1s0.5,0,0.6,0c1.4,0,2.9-0.5,3.8-1.6
			c1-0.9,1.7-2.2,1.8-3.6c0-0.3,0-0.6,0-1.2s0-0.9,0-1c0-1.4-0.1-3-0.3-4.4l18.1,10.5c1.4,0.9,2.6,1.8,3.4,3.1
			c0.8,1.2,1.3,2.5,1.6,4l21.8,153l-17.8,1.4c-1.7,0.1-3.1,0.9-4.2,2.2c-1,1.2-1.6,2.7-1.4,4.4l0,0c0.1,1.7,0.9,3.1,2.1,4.2
			c1.2,1,2.9,1.6,4.4,1.4l0,0l18.6-1.6l0.6,4.4l-30.9,2.3L202.1,233.8z M129.6,179.9v132.2H84.1v-91.3l9.6-63c0.1-1-0.6-2.1-1.6-2.2
			c-1-0.1-2.1,0.6-2.2,1.7l-9.6,62.9c0,0.1-0.1,0.4-0.1,0.5l-8.5,56.1l-30.9-2.3l0.6-4.4l18.6,1.4l0,0c1.7,0.1,3.2-0.4,4.4-1.4
			c1.2-1,2.1-2.5,2.1-4.2l0,0c0.1-1.7-0.4-3.2-1.4-4.4c-1-1.2-2.5-2.1-4.2-2.2l-17.8-1.5l21.9-153c0.3-1.6,0.8-2.9,1.6-4
			c0.8-1.2,1.9-2.2,3.4-3.1l17.9-10.5c-0.1,1.4-0.3,2.9-0.3,4.3c0,0.1,0,0.4,0,1c0,0.4,0,0.8,0,1.2c0.1,1.4,0.8,2.7,1.8,3.6
			s2.3,1.6,3.8,1.6c0.5,0,0.9,0,1.4-0.1c2.1-0.6,4.3-1.2,6.4-1.7c0.6-0.1,1.4-0.4,2.1-0.5c-3.5,3.9-8.8,9.7-9.1,11.3
			c-0.3,1-0.3,2.1,0,3s0.6,1.8,1.3,2.7l39.1,50.5C133.5,167.1,129.6,177.6,129.6,179.9z M80.3,246.3v67.8c0,1.2,0.9,2.1,1.9,2.1
			c39.4,0,78.6,0,117.9,0c1,0,1.9-0.9,1.9-2.1v-54.8l3,19.7c0.1,1,1.2,1.8,2.1,1.7l34.8-2.6c1-0.1,1.8-1.2,1.7-2.2l-1.2-8.3l0,0
			l-1.2-8.2c0-0.1,0-0.1,0-0.1l-22-155c-0.3-2.1-1-4-2.2-5.7s-2.7-3.1-4.7-4.2l-20.8-12.2c-2.1-9.2-7.3-17.4-14.4-23.6
			c-9.5-8.4-22.6-13.6-37-13.6s-27.5,5.2-37,13.6C95.8,65,90.8,73.1,88.7,82.4L68.1,94.5c-1.9,1.2-3.5,2.6-4.7,4.2
			c-1.2,1.7-1.8,3.5-2.2,5.7L39.1,259.3c0,0.1,0,0.1,0,0.1l-1.2,8.2l0,0l-1.2,8.3c-0.1,1,0.6,2.1,1.7,2.2h0.1l0,0l34.7,2.6
			c1,0.1,1.9-0.6,2.1-1.7L80.3,246.3z M145.9,189.4c-1.8,0-3.4,0.6-4.5,1.8c-1.2,1.2-1.8,2.7-1.8,4.5s0.6,3.4,1.8,4.5
			c1.2,1.2,2.7,1.8,4.5,1.8s3.4-0.6,4.5-1.8c1.2-1.2,1.8-2.7,1.8-4.5s-0.6-3.4-1.8-4.5C149.1,190.1,147.6,189.4,145.9,189.4z
			 M144,194.1c0.4-0.5,1-0.8,1.8-0.8c0.6,0,1.3,0.3,1.7,0.8c0.5,0.4,0.8,1,0.8,1.7c0,0.6-0.3,1.3-0.8,1.8c-0.4,0.4-1,0.8-1.7,0.8
			c-0.6,0-1.3-0.3-1.8-0.8s-0.8-1-0.8-1.8C143.3,195.1,143.7,194.5,144,194.1z M145.9,236c-1.8,0-3.4,0.6-4.5,1.8
			c-1.2,1.2-1.8,2.7-1.8,4.5s0.6,3.4,1.8,4.5c1.2,1.2,2.7,1.8,4.5,1.8s3.4-0.6,4.5-1.8c1.2-1.2,1.8-2.7,1.8-4.5s-0.6-3.4-1.8-4.5
			C149.1,236.7,147.6,236,145.9,236z M144,240.6c0.4-0.4,1-0.8,1.8-0.8c0.6,0,1.3,0.3,1.7,0.8c0.5,0.4,0.8,1,0.8,1.8
			s-0.3,1.3-0.8,1.8c-0.4,0.4-1,0.6-1.7,0.6c-0.6,0-1.3-0.3-1.8-0.6c-0.4-0.5-0.8-1-0.8-1.8C143.3,241.6,143.7,241.1,144,240.6z
			 M145.9,282.5c-1.8,0-3.4,0.8-4.5,1.8c-1.2,1.2-1.8,2.7-1.8,4.5c0,1.7,0.6,3.4,1.8,4.5c1.2,1.2,2.7,1.8,4.5,1.8s3.4-0.8,4.5-1.8
			c1.2-1.2,1.8-2.7,1.8-4.5s-0.6-3.4-1.8-4.5C149.1,283.3,147.6,282.5,145.9,282.5z M144,287.2c0.4-0.4,1-0.8,1.8-0.8
			c0.6,0,1.3,0.3,1.7,0.8c0.5,0.4,0.8,1,0.8,1.8c0,0.6-0.3,1.3-0.8,1.7c-0.4,0.4-1,0.8-1.7,0.8c-0.6,0-1.3-0.3-1.8-0.8
			c-0.4-0.4-0.8-1-0.8-1.7C143.3,288.2,143.7,287.6,144,287.2z M90.7,282.1L99,283c1,0.1,2.1-0.6,2.1-1.7l6-59.5
			c0.1-1-0.6-2.1-1.8-2.1l-8.3-0.9c-1-0.1-2.1,0.6-2.1,1.8l-6,59.5C88.9,281.1,89.6,282,90.7,282.1z M97.4,278.9l-4.4-0.4l5.6-55.6
			l4.4,0.5L97.4,278.9z M189.5,278.5l-4.5,0.4l-5.6-55.6l4.5-0.5L189.5,278.5z M183.4,282.9l8.3-0.9c1-0.1,1.8-1,1.7-2.1l-6-59.5
			c-0.1-1-1-1.8-2.1-1.8l-8.3,0.9c-1,0.1-1.8,1-1.7,2.1l6,59.5C181.5,282.3,182.4,283,183.4,282.9z M42.1,266.2l0.6-4.5l18.1,1.6
			c0.6,0,1.2,0.4,1.6,0.8s0.5,1,0.5,1.6v0.1c-0.1,0.6-0.4,1.2-0.8,1.4c-0.4,0.4-1,0.5-1.6,0.5h-0.1L42.1,266.2z M237.8,261.6
			l0.6,4.5l-18.2,1.4h-0.1c-0.6,0-1.2-0.1-1.6-0.5c-0.4-0.4-0.6-0.9-0.8-1.4v-0.1c0-0.6,0.1-1.2,0.5-1.6s0.9-0.8,1.6-0.8
			L237.8,261.6z M141.5,143.6c-0.4,1.3-0.9,2.6-1.3,3.9l-0.5-1.4c-8.6-25.2-17.1-50.7-17.1-72.6c0-4.8,1.9-9.2,5.1-12.5
			c3.2-3.1,7.5-5.1,12.5-5.1c4.8,0,9.2,1.9,12.5,5.1c3.1,3.2,5.1,7.5,5.1,12.5C157.7,96,149.1,121.1,141.5,143.6z"/>
	</g>
</g>
</svg>
